#!OML:ASF G:\JayActor3\Patient Classification 1\Patient 1\Session 6\male.ASF
:FULLY-SPECIFIED
:DEGREES
1099
root 15.1912 15.1675 -11.0549 193.948 -48.7092 -180.825
lowerback 35.462 2.41717 1.36106
upperback 17.7937 -0.459277 -1.04051
thorax 1.68716 -1.50462 -1.70911
lowerneck 2.478 -2.46009 1.53211
upperneck -25.7401 -3.87702 3.05279
head -8.3465 -2.93771 1.16097
rclavicle 8.34896e-015 1.05654e-013
rhumerus 15.791 17.5339 -60.3091
rradius 68.0093
rwrist -8.36072
rhand -23.8022 -11.0228
rfingers 7.12502
rthumb 2.66841 -40.9859
lclavicle 8.34896e-015 1.05654e-013
lhumerus -2.63721 -13.518 66.0866
lradius 68.0378
lwrist 31.8414
lhand -18.6173 11.3677
lfingers 7.12502
lthumb 7.67459 41.2084
rfemur -56.8971 -11.7268 24.9133
rtibia 77.7173
rfoot -21.2444 -18.9385
rtoes -5.83294
lfemur -50.6659 13.2516 -25.6548
ltibia 55.0439
lfoot -17.4311 5.71198
ltoes -0.572728
1100
root 15.1743 15.166 -11.0665 194.01 -48.6487 -180.872
lowerback 35.4796 2.43493 1.34254
upperback 17.8048 -0.450461 -1.10182
thorax 1.69264 -1.49918 -1.76624
lowerneck 2.44305 -2.46946 1.5708
upperneck -25.6951 -3.89026 3.02999
head -8.32607 -2.94356 1.1457
rclavicle -4.55217e-014 -2.88238e-014
rhumerus 16.0197 17.4456 -60.2666
rradius 68.1316
rwrist -8.42275
rhand -23.9452 -11.0239
rfingers 7.12502
rthumb 2.53031 -40.9886
lclavicle -4.55217e-014 -2.88238e-014
lhumerus -2.54228 -13.4463 66.0883
lradius 67.8213
lwrist 31.8291
lhand -18.9654 11.3542
lfingers 7.12502
lthumb 7.3385 41.207
rfemur -57.2847 -11.6505 24.7896
rtibia 77.4434
rfoot -21.2144 -18.52
rtoes -6.89058
lfemur -50.6355 13.347 -25.7208
ltibia 55.0911
lfoot -17.57 5.71297
ltoes -0.53614
1101
root 15.1582 15.1642 -11.0794 194.092 -48.6059 -180.931
lowerback 35.4903 2.44869 1.35846
upperback 17.8203 -0.436036 -1.17435
thorax 1.70583 -1.48718 -1.85505
lowerneck 2.3894 -2.49304 1.67766
upperneck -25.6532 -3.91959 3.00035
head -8.30516 -2.96348 1.11763
rclavicle -5.32743e-014 5.53615e-014
rhumerus 16.1896 17.2969 -60.2823
rradius 68.265
rwrist -8.48686
rhand -24.0712 -11.0122
rfingers 7.12502
rthumb 2.4086 -40.9784
lclavicle -5.32743e-014 5.53615e-014
lhumerus -2.42198 -13.4437 66.0639
lradius 67.6064
lwrist 31.8011
lhand -19.3105 11.3989
lfingers 7.12502
lthumb 7.00544 41.263
rfemur -57.637 -11.5351 24.6425
rtibia 77.0124
rfoot -21.2277 -18.1849
rtoes -7.91797
lfemur -50.6135 13.4181 -25.7863
ltibia 55.1413
lfoot -17.7107 5.70376
ltoes -0.420881
1102
root 15.1427 15.1623 -11.0935 194.188 -48.588 -181.002
lowerback 35.4997 2.44875 1.38517
upperback 17.8352 -0.433991 -1.24059
thorax 1.7186 -1.48047 -1.93934
lowerneck 2.33149 -2.51787 1.79564
upperneck -25.6191 -3.95098 2.97009
head -8.28652 -2.98607 1.08783
rclavicle 8.64713e-015 3.39922e-014
rhumerus 16.3378 17.1529 -60.3157
rradius 68.4076
rwrist -8.5728
rhand -24.1695 -10.9849
rfingers 7.12502
rthumb 2.31363 -40.9521
lclavicle 8.64713e-015 3.39922e-014
lhumerus -2.31764 -13.4528 66.0456
lradius 67.4067
lwrist 31.7519
lhand -19.6453 11.4903
lfingers 7.12502
lthumb 6.68227 41.3649
rfemur -57.9477 -11.4001 24.48
rtibia 76.4344
rfoot -21.2864 -17.9847
rtoes -8.90832
lfemur -50.5964 13.4588 -25.8476
ltibia 55.192
lfoot -17.8472 5.68333
ltoes -0.249045
1103
root 15.1279 15.1602 -11.1089 194.292 -48.5925 -181.077
lowerback 35.51 2.4381 1.41177
upperback 17.8474 -0.4434 -1.29042
thorax 1.72781 -1.48008 -2.00295
lowerneck 2.2895 -2.53734 1.90134
upperneck -25.6081 -3.97609 2.9431
head -8.27839 -3.00587 1.06177
rclavicle 4.50247e-014 8.50301e-014
rhumerus 16.4738 17.0303 -60.3475
rradius 68.5618
rwrist -8.68067
rhand -24.2334 -10.9586
rfingers 7.12502
rthumb 2.25195 -40.9265
lclavicle 4.50247e-014 8.50301e-014
lhumerus -2.24025 -13.4629 66.0453
lradius 67.2271
lwrist 31.6856
lhand -19.9418 11.6082
lfingers 7.12502
lthumb 6.39602 41.4917
rfemur -58.2129 -11.2415 24.3072
rtibia 75.7183
rfoot -21.3892 -17.9283
rtoes -9.79452
lfemur -50.584 13.4719 -25.899
ltibia 55.2432
lfoot -17.9817 5.6697
ltoes -0.069645
1104
root 15.1137 15.1583 -11.1257 194.388 -48.6287 -181.149
lowerback 35.5308 2.40779 1.44617
upperback 17.8564 -0.473407 -1.32008
thorax 1.72969 -1.49049 -2.0433
lowerneck 2.25649 -2.54922 1.98235
upperneck -25.6084 -3.99306 2.91822
head -8.27513 -3.02027 1.0405
rclavicle -5.12864e-014 3.12589e-014
rhumerus 16.6074 16.9475 -60.3632
rradius 68.7269
rwrist -8.80944
rhand -24.2661 -10.9342
rfingers 7.12502
rthumb 2.22037 -40.9024
lclavicle -5.12864e-014 3.12589e-014
lhumerus -2.20254 -13.4598 66.0699
lradius 67.0746
lwrist 31.6072
lhand -20.1771 11.7439
lfingers 7.12502
lthumb 6.16883 41.6341
rfemur -58.4139 -11.0753 24.128
rtibia 74.8664
rfoot -21.5291 -18.0102
rtoes -10.5871
lfemur -50.5643 13.4545 -25.9342
ltibia 55.2944
lfoot -18.1084 5.66302
ltoes 0.0501428
1105
root 15.1001 15.1564 -11.1438 194.465 -48.6906 -181.2
lowerback 35.5575 2.36272 1.47989
upperback 17.8637 -0.520684 -1.31863
thorax 1.72747 -1.51162 -2.04554
lowerneck 2.24532 -2.54727 2.009
upperneck -25.6271 -3.99354 2.90373
head -8.28056 -3.02335 1.03162
rclavicle -2.49475e-014 -2.25621e-014
rhumerus 16.7538 16.9188 -60.3424
rradius 68.898
rwrist -8.94921
rhand -24.2588 -10.9315
rfingers 7.12502
rthumb 2.22737 -40.8997
lclavicle -2.49475e-014 -2.25621e-014
lhumerus -2.20831 -13.4323 66.1304
lradius 66.9432
lwrist 31.5331
lhand -20.3349 11.8372
lfingers 7.12502
lthumb 6.01646 41.7317
rfemur -58.5433 -10.886 23.9488
rtibia 73.8845
rfoot -21.7129 -18.1851
rtoes -11.2325
lfemur -50.5398 13.4181 -25.9417
ltibia 55.3484
lfoot -18.2358 5.65883
ltoes 0.133745
